<svg width="12" height="12" viewBox="0 0 12 12" fill="none" xmlns="http://www.w3.org/2000/svg">
<path d="M2 9V7.15C2 6.7358 1.66421 6.4 1.25 6.4H1V5.6H1.25C1.66421 5.6 2 5.2642 2 4.85V3C2 2.17158 2.67158 1.5 3.5 1.5H4V2.5H3.5C3.22386 2.5 3 2.72386 3 3V5.05C3 5.4929 2.71204 5.8686 2.31311 6C2.71204 6.1314 3 6.5071 3 6.95V9C3 9.27615 3.22386 9.5 3.5 9.5H4V10.5H3.5C2.67158 10.5 2 9.82845 2 9ZM10 7.15V9C10 9.82845 9.32845 10.5 8.5 10.5H8V9.5H8.5C8.77615 9.5 9 9.27615 9 9V6.95C9 6.5071 9.28795 6.1314 9.6869 6C9.28795 5.8686 9 5.4929 9 5.05V3C9 2.72386 8.77615 2.5 8.5 2.5H8V1.5H8.5C9.32845 1.5 10 2.17158 10 3V4.85C10 5.2642 10.3358 5.6 10.75 5.6H11V6.4H10.75C10.3358 6.4 10 6.7358 10 7.15Z" fill="#343435"/>
</svg>
