<svg width="12" height="12" viewBox="0 0 12 12" fill="none" xmlns="http://www.w3.org/2000/svg">
<path d="M3.02818 4.15025C3.05997 4.09927 3.09305 4.04918 3.12735 4H8.87265C8.90695 4.04918 8.94 4.09927 8.9718 4.15025L9.98205 3.56698L10.482 4.43301L9.3756 5.0718C9.4567 5.3674 9.5 5.67865 9.5 6V6.5H11V7.5H9.5C9.5 7.9767 9.4047 8.43115 9.2321 8.84535L10.482 9.567L9.98205 10.433L8.71915 9.70385C8.17665 10.3723 7.39265 10.8369 6.5 10.9646V7H5.5V10.9646C4.60733 10.8369 3.82332 10.3723 3.28085 9.70385L2.01795 10.433L1.51795 9.567L2.7679 8.84535C2.5953 8.43115 2.5 7.9767 2.5 7.5H1V6.5H2.5V6C2.5 5.67865 2.5433 5.3674 2.6244 5.0718L1.51795 4.43301L2.01795 3.56698L3.02818 4.15025ZM4 3C4 1.89543 4.89543 1 6 1C7.10455 1 8 1.89543 8 3H4Z" fill="#343435"/>
</svg>
