<svg width="12" height="12" viewBox="0 0 12 12" fill="none" xmlns="http://www.w3.org/2000/svg">
<path d="M10.5 4.75V6.25C10.5 7.49265 8.4853 8.5 6 8.5C3.51472 8.5 1.5 7.49265 1.5 6.25V4.75C1.5 5.99265 3.51472 7 6 7C8.4853 7 10.5 5.99265 10.5 4.75ZM1.5 7.25C1.5 8.49265 3.51472 9.5 6 9.5C8.4853 9.5 10.5 8.49265 10.5 7.25V8.75C10.5 9.99265 8.4853 11 6 11C3.51472 11 1.5 9.99265 1.5 8.75V7.25ZM6 6C3.51472 6 1.5 4.99264 1.5 3.75C1.5 2.50736 3.51472 1.5 6 1.5C8.4853 1.5 10.5 2.50736 10.5 3.75C10.5 4.99264 8.4853 6 6 6Z" fill="#BCBDBE"/>
</svg>
