<svg width="12" height="12" viewBox="0 0 12 12" fill="none" xmlns="http://www.w3.org/2000/svg">
<path d="M4.977 1.1053C5.6438 0.965719 6.34035 0.961314 7.02245 1.10392C7.11095 1.6837 7.4524 2.21946 7.99985 2.53551C8.54725 2.85156 9.182 2.87942 9.7283 2.66615C10.1929 3.18559 10.5373 3.79101 10.7498 4.43826C10.2926 4.80479 9.99985 5.368 9.99985 5.9996C9.99985 6.6316 10.2929 7.1951 10.7506 7.5616C10.645 7.8818 10.5052 8.1961 10.3299 8.4996C10.1547 8.80315 9.95245 9.08135 9.72795 9.33295C9.1817 9.1198 8.54715 9.14775 7.99985 9.4637C7.45285 9.7795 7.1115 10.3147 7.02265 10.8939C6.3559 11.0335 5.65935 11.0379 4.97721 10.8953C4.88874 10.3155 4.54725 9.77975 3.99983 9.4637C3.45242 9.14765 2.81769 9.1198 2.27136 9.3331C1.80678 8.81365 1.46233 8.2082 1.24982 7.56095C1.70706 7.19445 1.99984 6.6312 1.99984 5.9996C1.99984 5.36765 1.70672 4.80413 1.24902 4.43762C1.35466 4.11741 1.49447 3.80314 1.66971 3.49961C1.84495 3.19608 2.04721 2.91788 2.2717 2.66628C2.81796 2.8794 3.45253 2.8515 3.99983 2.53551C4.54682 2.21971 4.8882 1.68455 4.977 1.1053ZM5.99985 7.4996C6.82825 7.4996 7.49985 6.82805 7.49985 5.9996C7.49985 5.1712 6.82825 4.49961 5.99985 4.49961C5.1714 4.49961 4.49983 5.1712 4.49983 5.9996C4.49983 6.82805 5.1714 7.4996 5.99985 7.4996Z" fill="#BCBDBE"/>
</svg>
