<svg width="12" height="12" viewBox="0 0 12 12" fill="none" xmlns="http://www.w3.org/2000/svg">
<path d="M3.55254 7.60505C4.10753 7.82505 4.5 8.3667 4.5 9C4.5 9.82845 3.82842 10.5 3 10.5C2.17158 10.5 1.5 9.82845 1.5 9C1.5 8.3469 1.91741 7.79125 2.5 7.58535V4.41465C1.91741 4.20873 1.5 3.65311 1.5 3C1.5 2.17158 2.17158 1.5 3 1.5C3.82842 1.5 4.5 2.17158 4.5 3C4.5 3.65311 4.08259 4.20873 3.5 4.41465V5.9998C3.91783 5.68595 4.4372 5.5 5 5.5H7C7.69175 5.5 8.2741 5.03175 8.44745 4.39496C7.89245 4.17494 7.5 3.63331 7.5 3C7.5 2.17158 8.17155 1.5 9 1.5C9.82845 1.5 10.5 2.17158 10.5 3C10.5 3.6666 10.0652 4.23164 9.4637 4.42696C9.2611 5.60425 8.23515 6.5 7 6.5H5C4.30826 6.5 3.7259 6.96825 3.55254 7.60505ZM3 8.5C2.72386 8.5 2.5 8.72385 2.5 9C2.5 9.27615 2.72386 9.5 3 9.5C3.27614 9.5 3.5 9.27615 3.5 9C3.5 8.72385 3.27614 8.5 3 8.5ZM3 2.5C2.72386 2.5 2.5 2.72386 2.5 3C2.5 3.27614 2.72386 3.5 3 3.5C3.27614 3.5 3.5 3.27614 3.5 3C3.5 2.72386 3.27614 2.5 3 2.5ZM9 2.5C8.72385 2.5 8.5 2.72386 8.5 3C8.5 3.27614 8.72385 3.5 9 3.5C9.27615 3.5 9.5 3.27614 9.5 3C9.5 2.72386 9.27615 2.5 9 2.5Z" fill="#BCBDBE"/>
</svg>
