<svg width="12" height="12" viewBox="0 0 12 12" fill="none" xmlns="http://www.w3.org/2000/svg">
<path d="M6 1C6.27615 1 6.5 1.22386 6.5 1.5V3C6.5 3.27614 6.27615 3.5 6 3.5C5.72385 3.5 5.5 3.27614 5.5 3V1.5C5.5 1.22386 5.72385 1 6 1ZM6 8.5C6.27615 8.5 6.5 8.72385 6.5 9V10.5C6.5 10.7761 6.27615 11 6 11C5.72385 11 5.5 10.7761 5.5 10.5V9C5.5 8.72385 5.72385 8.5 6 8.5ZM11 6C11 6.27615 10.7761 6.5 10.5 6.5H9C8.72385 6.5 8.5 6.27615 8.5 6C8.5 5.72385 8.72385 5.5 9 5.5H10.5C10.7761 5.5 11 5.72385 11 6ZM3.5 6C3.5 6.27615 3.27614 6.5 3 6.5H1.5C1.22386 6.5 1 6.27615 1 6C1 5.72385 1.22386 5.5 1.5 5.5H3C3.27614 5.5 3.5 5.72385 3.5 6ZM9.53555 9.53555C9.34025 9.7308 9.0237 9.7308 8.82845 9.53555L7.76775 8.47485C7.5725 8.2796 7.5725 7.96305 7.76775 7.76775C7.96305 7.5725 8.2796 7.5725 8.47485 7.76775L9.53555 8.82845C9.7308 9.0237 9.7308 9.34025 9.53555 9.53555ZM4.23223 4.23223C4.03697 4.42749 3.72039 4.42749 3.52513 4.23223L2.46446 3.17158C2.2692 2.97631 2.2692 2.65973 2.46446 2.46446C2.65973 2.2692 2.97631 2.2692 3.17158 2.46446L4.23223 3.52513C4.42749 3.72039 4.42749 4.03697 4.23223 4.23223ZM2.46446 9.53555C2.2692 9.34025 2.2692 9.0237 2.46446 8.82845L3.52513 7.76775C3.72039 7.5725 4.03697 7.5725 4.23223 7.76775C4.42749 7.96305 4.42749 8.2796 4.23223 8.47485L3.17158 9.53555C2.97631 9.7308 2.65973 9.7308 2.46446 9.53555ZM7.76775 4.23223C7.5725 4.03697 7.5725 3.72039 7.76775 3.52513L8.82845 2.46446C9.0237 2.2692 9.34025 2.2692 9.53555 2.46446C9.7308 2.65973 9.7308 2.97631 9.53555 3.17158L8.47485 4.23223C8.2796 4.42749 7.96305 4.42749 7.76775 4.23223Z" fill="#BCBDBE"/>
</svg>
