<svg width="12" height="12" viewBox="0 0 12 12" fill="none" xmlns="http://www.w3.org/2000/svg">
<path d="M10 2.5H2V9.5L6.64615 4.85324C6.8414 4.65797 7.15795 4.65796 7.35325 4.85321L10 7.5052V2.5ZM1 1.9967C1 1.72238 1.22766 1.5 1.4959 1.5H10.5041C10.778 1.5 11 1.72248 11 1.9967V10.0033C11 10.2776 10.7723 10.5 10.5041 10.5H1.4959C1.22203 10.5 1 10.2775 1 10.0033V1.9967ZM4 5.5C3.44771 5.5 3 5.0523 3 4.5C3 3.94771 3.44771 3.5 4 3.5C4.55229 3.5 5 3.94771 5 4.5C5 5.0523 4.55229 5.5 4 5.5Z" fill="#BCBDBE"/>
</svg>
