<svg width="12" height="12" viewBox="0 0 12 12" fill="none" xmlns="http://www.w3.org/2000/svg">
<path d="M6.0005 6.75005C5.58625 6.75005 5.2505 6.41425 5.2505 6.00005C5.2505 5.5858 5.58625 5.25005 6.0005 5.25005C6.4147 5.25005 6.7505 5.5858 6.7505 6.00005C6.7505 6.41425 6.4147 6.75005 6.0005 6.75005ZM5.73665 8.24725C5.82395 8.3525 5.91195 8.454 6.0005 8.5515C6.089 8.454 6.17705 8.3525 6.2643 8.24725C6.1769 8.2491 6.08895 8.25005 6.0005 8.25005C5.912 8.25005 5.82405 8.2491 5.73665 8.24725ZM4.73918 8.1847C4.3381 8.1423 3.95517 8.08015 3.59634 8.0008C3.55916 8.1756 3.53067 8.3452 3.51121 8.5083C3.41679 9.3 3.54902 9.78085 3.75049 9.89715C3.95195 10.0135 4.43446 9.88755 5.0729 9.40995C5.2044 9.31155 5.33705 9.2021 5.46985 9.08245C5.2217 8.8114 4.97643 8.51085 4.73918 8.1847ZM8.40465 8.0008C8.0458 8.08015 7.66285 8.1423 7.2618 8.1847C7.02455 8.51085 6.77925 8.8114 6.5311 9.08245C6.66395 9.2021 6.79655 9.31155 6.9281 9.40995C7.5665 9.88755 8.04905 10.0135 8.2505 9.89715C8.45195 9.78085 8.5842 9.3 8.48975 8.5083C8.4703 8.3452 8.4418 8.1756 8.40465 8.0008ZM9.1299 7.8068C9.4182 9.1263 9.2664 10.1766 8.6255 10.5466C7.98455 10.9167 6.99905 10.523 6.0005 9.61355C5.0019 10.523 4.01641 10.9167 3.37549 10.5466C2.73456 10.1766 2.58277 9.1263 2.87108 7.8068C1.58421 7.39675 0.750488 6.7401 0.750488 6.00005C0.750488 5.25995 1.58421 4.60334 2.87108 4.19327C2.58277 2.87377 2.73456 1.82344 3.37549 1.4534C4.01641 1.08337 5.0019 1.47708 6.0005 2.38651C6.99905 1.47708 7.98455 1.08337 8.6255 1.4534C9.2664 1.82344 9.4182 2.87377 9.1299 4.19327C10.4167 4.60334 11.2505 5.25995 11.2505 6.00005C11.2505 6.7401 10.4167 7.39675 9.1299 7.8068ZM5.46985 2.91761C5.33705 2.79799 5.2044 2.68852 5.0729 2.59012C4.43446 2.1125 3.95195 1.98661 3.75049 2.10292C3.54902 2.21924 3.41679 2.70005 3.51121 3.49175C3.53067 3.65485 3.55916 3.82445 3.59634 3.99929C3.95517 3.91993 4.3381 3.85778 4.73918 3.81539C4.97643 3.48924 5.2217 3.18869 5.46985 2.91761ZM7.2618 3.81539C7.66285 3.85778 8.0458 3.91993 8.40465 3.99929C8.4418 3.82445 8.4703 3.65485 8.48975 3.49175C8.5842 2.70005 8.45195 2.21924 8.2505 2.10292C8.04905 1.98661 7.5665 2.1125 6.9281 2.59012C6.79655 2.68852 6.66395 2.79799 6.5311 2.91761C6.77925 3.18869 7.02455 3.48924 7.2618 3.81539ZM6.2643 3.75283C6.17705 3.64758 6.089 3.54606 6.0005 3.44856C5.91195 3.54606 5.82395 3.64758 5.73665 3.75283C5.82405 3.75097 5.912 3.75004 6.0005 3.75004C6.08895 3.75004 6.1769 3.75097 6.2643 3.75283ZM4.18626 7.3521C4.14095 7.27735 4.09616 7.20165 4.05193 7.12505C4.00769 7.0484 3.96453 6.97175 3.92244 6.89515C3.87492 7.02335 3.83102 7.15035 3.79084 7.27575C3.91954 7.3037 4.05147 7.32915 4.18626 7.3521ZM5.15245 7.46885C5.42895 7.4894 5.71255 7.50005 6.0005 7.50005C6.28845 7.50005 6.572 7.4894 6.8485 7.46885C7.00455 7.23965 7.15555 6.9994 7.29955 6.75005C7.4435 6.50065 7.5761 6.24975 7.6965 6.00005C7.5761 5.7503 7.4435 5.4994 7.29955 5.25005C7.15555 5.00065 7.00455 4.76041 6.8485 4.53123C6.572 4.51067 6.28845 4.50004 6.0005 4.50004C5.71255 4.50004 5.42895 4.51067 5.15245 4.53123C4.99641 4.76041 4.84543 5.00065 4.70145 5.25005C4.55747 5.4994 4.4249 5.7503 4.30446 6.00005C4.4249 6.24975 4.55747 6.50065 4.70145 6.75005C4.84543 6.9994 4.99641 7.23965 5.15245 7.46885ZM8.07855 5.1049C8.12605 4.9767 8.16995 4.8497 8.21015 4.7243C8.08145 4.69639 7.9495 4.67091 7.8147 4.64796C7.86 4.72272 7.9048 4.79842 7.94905 4.87504C7.9933 4.95165 8.03645 5.0283 8.07855 5.1049ZM3.06571 4.91836C2.89571 4.97357 2.73458 5.0337 2.58361 5.0984C1.85077 5.4125 1.50049 5.7674 1.50049 6.00005C1.50049 6.23265 1.85077 6.5876 2.58361 6.90165C2.73458 6.96635 2.89571 7.0265 3.06571 7.0817C3.1764 6.73125 3.31405 6.36855 3.47788 6.00005C3.31405 5.6315 3.1764 5.2688 3.06571 4.91836ZM3.79084 4.7243C3.83102 4.8497 3.87492 4.9767 3.92244 5.1049C3.96453 5.0283 4.00769 4.95165 4.05193 4.87504C4.09616 4.79842 4.14095 4.72272 4.18626 4.64796C4.05147 4.67091 3.91954 4.69639 3.79084 4.7243ZM8.93525 7.0817C9.10525 7.0265 9.2664 6.96635 9.41735 6.90165C10.1502 6.5876 10.5005 6.23265 10.5005 6.00005C10.5005 5.7674 10.1502 5.4125 9.41735 5.0984C9.2664 5.0337 9.10525 4.97357 8.93525 4.91836C8.82455 5.2688 8.68695 5.6315 8.5231 6.00005C8.68695 6.36855 8.82455 6.73125 8.93525 7.0817ZM8.21015 7.27575C8.16995 7.15035 8.12605 7.02335 8.07855 6.89515C8.03645 6.97175 7.9933 7.0484 7.94905 7.12505C7.9048 7.20165 7.86 7.27735 7.8147 7.3521C7.9495 7.32915 8.08145 7.3037 8.21015 7.27575Z" fill="#BCBDBE"/>
</svg>
