<svg width="12" height="12" viewBox="0 0 12 12" fill="none" xmlns="http://www.w3.org/2000/svg">
<path d="M2 7.5V4.25C2 3.00736 3.00736 2 4.25 2C5.49265 2 6.5 3.00736 6.5 4.25V7.75C6.5 8.44035 7.05965 9 7.75 9C8.44035 9 9 8.44035 9 7.75V4.41465C8.4174 4.20873 8 3.65311 8 3C8 2.17158 8.67155 1.5 9.5 1.5C10.3285 1.5 11 2.17158 11 3C11 3.65311 10.5826 4.20873 10 4.41465V7.75C10 8.99265 8.99265 10 7.75 10C6.50735 10 5.5 8.99265 5.5 7.75V4.25C5.5 3.55964 4.94036 3 4.25 3C3.55964 3 3 3.55964 3 4.25V7.5H4.5L2.5 10L0.5 7.5H2Z" fill="#343435"/>
</svg>
