<svg width="12" height="12" viewBox="0 0 12 12" fill="none" xmlns="http://www.w3.org/2000/svg">
<path d="M5.9998 2.42999C4.41314 2.42999 3.42147 3.22332 3.02481 4.80999C3.61981 4.01666 4.31397 3.71916 5.1073 3.91749C5.56 4.03054 5.8833 4.35878 6.24175 4.72272C6.82535 5.31475 7.5002 6 8.9748 6C10.5615 6 11.5531 5.20665 11.9498 3.61999C11.3548 4.41332 10.6607 4.71082 9.8673 4.51249C9.4146 4.39944 9.09135 4.0712 8.73285 3.70726C8.14975 3.11523 7.4749 2.42999 5.9998 2.42999ZM3.02481 6C1.43814 6 0.446471 6.79335 0.0498047 8.38C0.644805 7.58665 1.33897 7.28915 2.1323 7.4875C2.585 7.60055 2.90828 7.9288 3.26677 8.29275C3.85036 8.88475 4.5252 9.57 5.9998 9.57C7.58645 9.57 8.57815 8.77665 8.9748 7.19C8.3798 7.98335 7.68565 8.28085 6.8923 8.0825C6.4396 7.96945 6.1163 7.6412 5.75785 7.27725C5.17475 6.68525 4.49991 6 3.02481 6Z" fill="#BCBDBE"/>
</svg>
